<svg xmlns="http://www.w3.org/2000/svg" xmlns:xlink="http://www.w3.org/1999/xlink" width="192" height="53" viewBox="0 0 192 53">
    <defs>
        <path id="prefix__a" d="M0 0.106L26.533 0.106 26.533 53 0 53z"/>
        <path id="prefix__c" d="M0.489 0.106L26.54 0.106 26.54 53 0.489 53z"/>
    </defs>
    <g fill="none" fill-rule="evenodd">
        <path fill="#FB3449" d="M45.371 41.616V37.79h-3.506c-2.69 0-4.157 1.348-4.157 3.4 0 2.402 1.468 3.888 4.078 3.888 2.364 0 3.585-1.342 3.585-3.462M28 41.189c0-6.228 5.386-10.687 13.294-10.687h4.077V27.46c0-2.126-1.301-3.538-3.665-3.538-2.45 0-3.506 1.342-3.593 3.117-.08.703-.57.916-1.467.916H29.96c-.896 0-1.388-.495-1.388-1.273C29.222 20.309 34.282 16 41.786 16 49.78 16 55 20.88 55 27.955v13.586C55 48.403 50.186 53 41.945 53 33.552 53 28 48.195 28 41.19M61 51.665V30.622C61 21.392 66.585 16 75.354 16h2.25c.853 0 1.396.445 1.396 1.335v5.61c0 .811-.543 1.256-1.396 1.256h-1.94c-3.412 0-5.585 2.068-5.585 5.387v22.077c0 .89-.467 1.335-1.32 1.335H62.32C61.468 53 61 52.555 61 51.665M129.373 41.616V37.79h-3.508c-2.69 0-4.159 1.348-4.159 3.4 0 2.402 1.469 3.888 4.08 3.888 2.365 0 3.587-1.342 3.587-3.462M112 41.189c0-6.228 5.381-10.687 13.294-10.687h4.08V27.46c0-2.126-1.31-3.538-3.675-3.538-2.444 0-3.507 1.342-3.587 3.117-.08.703-.572.916-1.468.916h-6.69c-.898 0-1.383-.495-1.383-1.273.651-6.373 5.707-10.682 13.215-10.682C133.778 16 139 20.88 139 27.955v13.586C139 48.403 134.19 53 125.952 53 117.54 53 112 48.195 112 41.19M145 51.665V30.622C145 21.392 150.587 16 159.36 16h2.25c.853 0 1.39.445 1.39 1.335v5.61c0 .811-.537 1.256-1.39 1.256h-1.947c-3.413 0-5.587 2.068-5.587 5.387v22.077c0 .89-.468 1.335-1.315 1.335h-6.446c-.853 0-1.315-.445-1.315-1.335M182.373 41.616V37.79h-3.508c-2.69 0-4.158 1.348-4.158 3.4 0 2.402 1.468 3.888 4.079 3.888 2.365 0 3.587-1.342 3.587-3.462M165 41.189c0-6.228 5.382-10.687 13.294-10.687h4.08V27.46c0-2.126-1.31-3.538-3.674-3.538-2.445 0-3.508 1.342-3.588 3.117-.08.703-.571.916-1.468.916h-6.69c-.898 0-1.382-.495-1.382-1.273.65-6.373 5.707-10.682 13.214-10.682C186.778 16 192 20.88 192 27.955v13.586C192 48.403 187.19 53 178.952 53 170.541 53 165 48.195 165 41.19"/>
        <mask id="prefix__b" fill="#fff">
            <use xlink:href="#prefix__a"/>
        </mask>
        <path fill="#FB3449" d="M14.911 14.078c-.375 0-.797.045-.983.136-.545 2.589-1.248 5.94-1.746 8.354.336-.075.656-.173 1.045-.173 2.408 0 3.843 1.482 3.843 3.792v14.704c0 2.304-1.435 3.793-3.843 3.793s-3.844-1.489-3.844-3.793V1.376c0-.822-.482-1.27-1.37-1.27h-6.65C.484.106 0 .554 0 1.376v38.995c0 7.506 5.293 12.63 13.227 12.63 8.014 0 13.306-5.124 13.306-12.63V26.629c0-7.428-4.49-12.55-11.622-12.55" mask="url(#prefix__b)"/>
        <g transform="translate(81)">
            <mask id="prefix__d" fill="#fff">
                <use xlink:href="#prefix__c"/>
            </mask>
            <path fill="#FB3449" d="M15.13 14.078c-.369 0-.784.045-.966.136-.535 2.589-1.225 5.94-1.714 8.354.33-.075.644-.173 1.026-.173 2.364 0 3.774 1.482 3.774 3.792v14.704c0 2.304-1.41 3.793-3.774 3.793s-3.774-1.489-3.774-3.793V1.376c0-.822-.474-1.27-1.345-1.27H1.828C.964.106.49.554.49 1.376v38.995c0 7.506 5.197 12.63 12.987 12.63 7.868 0 13.064-5.124 13.064-12.63V26.629c0-7.428-4.408-12.55-11.41-12.55" mask="url(#prefix__d)"/>
        </g>
    </g>
</svg>
