<svg width="63" height="63" xmlns="http://www.w3.org/2000/svg"><g fill="none" fill-rule="evenodd"><path d="M.522 31.18C.522 14.058 14.404.178 31.527.178 48.65.177 62.53 14.057 62.53 31.18c0 17.122-13.88 31.003-31.004 31.003-17.122 0-31.003-13.88-31.003-31.003" fill="#FF6E00"/><path d="M.522 31.18C.522 14.058 14.404.178 31.527.178 48.65.177 62.53 14.057 62.53 31.18c0 17.122-13.88 31.003-31.004 31.003-17.122 0-31.003-13.88-31.003-31.003h0z" stroke="#FF6E00" stroke-width=".354"/><path d="M19.469 7.61a4.723 4.723 0 00-4.719 4.72v1.406a5.446 5.446 0 00-3.031-.907c-3.013 0-5.438 2.454-5.438 5.47a5.425 5.425 0 005.438 5.437c3.014 0 5.469-2.425 5.469-5.438 0-.771-.15-1.522-.438-2.187v-3.782a2.713 2.713 0 012.719-2.718h11.375v3.968H24.53c-.958 0-1.75.76-1.75 1.72v5.968c0 .96.792 1.719 1.75 1.719h6.313v2.75H24.53c-.906 0-1.64.678-1.718 1.562-.004.051-.032.104-.032.156V45.33H16.75V27.454c0-.052.005-.103 0-.156-.079-.885-.843-1.562-1.75-1.562H6.719v21.562h2V27.704h5.531c.275 0 .5.227.5.5V45.33h-4.313v1.97h22.376V33.703c0-.163.147-.28.312-.28h1.125c.164 0 .313.117.313.28v13.594h10V33.704c0-.163.147-.28.312-.28H46c.165 0 .312.117.313.28v13.594h10.03V27.454c0-.052-.026-.103-.03-.156a1.712 1.712 0 00-1.72-1.562h-20.03v1.968h19.28c.274 0 .5.227.5.5V45.33h-6.062V33.173c0-.959-.76-1.75-1.718-1.75h-2.25c-.96 0-1.72.791-1.72 1.75V45.33h-6.062V33.173c0-.959-.76-1.75-1.718-1.75h-2.25c-.96 0-1.72.791-1.72 1.75V45.33h-6.062V28.204c0-.273.226-.5.5-.5h7.532V21.017h-7.72a.324.324 0 01-.312-.313v-4.843c0-.165.148-.313.313-.313h7.718V7.611H19.47zm-7.75 7.188c1.918 0 3.5 1.581 3.5 3.5 0 1.918-1.581 3.469-3.5 3.469a3.466 3.466 0 01-3.469-3.469c0-1.919 1.551-3.5 3.469-3.5z" fill="#FFF"/><path d="M8.261 18.283a3.472 3.472 0 116.944 0 3.472 3.472 0 01-6.944 0zm-1.983 0a5.457 5.457 0 1110.913-.001 5.457 5.457 0 01-10.913.001z" fill="#231F20"/><path d="M11.742 23.923a5.623 5.623 0 01-5.625-5.625c0-3.11 2.517-5.664 5.625-5.664 3.11 0 5.625 2.554 5.625 5.664a5.622 5.622 0 01-5.625 5.625z" fill="#231F20"/><path d="M11.742 21.58a3.268 3.268 0 003.281-3.282c0-1.823-1.458-3.32-3.28-3.32a3.335 3.335 0 00-3.321 3.32c0 1.822 1.498 3.281 3.32 3.281z" fill="#FF6E00"/></g></svg>